<?xml version="1.0" encoding="UTF-8"?><svg id="a" xmlns="http://www.w3.org/2000/svg" viewBox="0 0 24 24"><defs><style>.b{fill:none;stroke:#000;stroke-linecap:round;stroke-linejoin:round;stroke-width:.5px;}</style></defs><path class="b" d="m8.49,19.19c-.68,0-1.25-.57-1.25-1.25,0-.69.57-1.25,1.27-1.25.69,0,1.25.57,1.25,1.25,0,.69-.57,1.26-1.27,1.26Z"/><path class="b" d="m10.64,16.13c-.07-.07-.14-.14-.2-.22-.08-.1-.16-.11-.27-.03-.15.12-.32.11-.49.04-.19-.08-.38-.17-.58-.24-.19-.07-.31-.19-.33-.39-.01-.11-.07-.16-.17-.15-.07,0-.15-.02-.21,0-.06.02-.13.08-.14.12-.03.24-.18.36-.4.44-.16.05-.32.12-.47.2-.2.1-.38.11-.56-.03-.08-.06-.15-.06-.22.02-.04.04-.08.08-.12.12-.09.08-.12.15-.03.26.12.14.12.3.05.47-.09.21-.17.42-.26.63-.07.16-.18.28-.36.3-.12.01-.18.07-.17.19,0,.06,0,.12,0,.18,0,.1.03.15.14.16.21.03.34.15.41.36.06.17.13.34.21.5.1.2.12.39-.03.57-.06.08-.05.14.01.2.05.05.1.09.14.14.08.09.15.09.24.02.15-.12.32-.13.5-.04.2.09.4.17.6.25.17.07.29.18.31.36.01.15.08.19.21.18.06,0,.11,0,.17,0,.1,0,.15-.03.16-.14.02-.21.15-.33.34-.4.19-.07.37-.14.55-.23.19-.09.37-.09.53.04.09.07.16.06.23-.02.04-.05.08-.09.13-.13.08-.07.09-.14.02-.23-.14-.17-.13-.35-.04-.54.08-.17.16-.34.22-.52.07-.21.19-.34.41-.36.12-.01.15-.07.14-.17,0-.06,0-.12,0-.18,0-.11-.04-.17-.15-.18-.21-.02-.33-.15-.4-.35-.06-.18-.14-.36-.22-.54-.09-.19-.09-.37.04-.54.02-.03.04-.06.07-.11Z"/><path class="b" d="m13.73,9.01c-1.56,0-2.87-1.32-2.87-2.88,0-1.59,1.31-2.88,2.91-2.87,1.58,0,2.87,1.3,2.87,2.87,0,1.58-1.32,2.89-2.91,2.89Z"/><path class="b" d="m10.09,14.04s.9-2.72,3.66-3.07,4.55,2.67,4.55,2.67l-4.55,6.86"/></svg>