<?xml version="1.0" encoding="UTF-8"?><svg id="a" xmlns="http://www.w3.org/2000/svg" viewBox="0 0 24 24"><defs><style>.b{fill:#ed2024;}</style></defs><path d="m16.63,18.31c-.52,0-1.03,0-1.55,0-.15,0-.22.03-.23.2-.13,1.27-1.26,2.34-2.52,2.48-1.64.17-3.04-1.04-3.18-2.54-.01-.15-.11-.14-.2-.14-.95,0-1.9,0-2.85,0-.5,0-.94-.12-1.29-.49-.57-.59-.59-1.52-.04-2.13.43-.48.87-.97,1.3-1.46.06-.07.11-.19.11-.29,0-.89-.02-1.78,0-2.66.07-2.46,1.22-4.24,3.43-5.33.14-.07.19-.15.18-.3-.03-.59.03-1.16.38-1.66.52-.77,1.45-1.14,2.34-.93.9.22,1.59,1,1.68,1.93.02.22.03.45.02.67,0,.15.04.22.18.28,1.57.73,2.62,1.91,3.17,3.55.19.57.28,1.15.28,1.75,0,.9,0,1.79,0,2.69,0,.11.05.25.12.33.4.47.81.92,1.23,1.38.46.51.59,1.09.32,1.72-.27.63-.78.94-1.47.95-.47,0-.94,0-1.41,0Zm-4.63-.79c1.95,0,3.9,0,5.85,0,.08,0,.15,0,.23,0,.33-.02.58-.17.7-.48.13-.3.06-.59-.16-.83-.47-.52-.95-1.04-1.41-1.58-.1-.12-.17-.29-.17-.45-.02-.97,0-1.94-.01-2.92,0-.25-.01-.51-.06-.75-.35-1.92-1.42-3.25-3.24-3.98-.26-.1-.32-.19-.33-.47,0-.36,0-.73-.04-1.09-.09-.65-.71-1.17-1.36-1.17-.71,0-1.31.48-1.4,1.17-.05.34-.03.68-.04,1.02,0,.37-.04.43-.38.56-1.95.75-3.24,2.62-3.24,4.71,0,.96,0,1.92,0,2.87,0,.21-.07.37-.21.53-.48.52-.95,1.04-1.41,1.58-.36.42-.19,1.06.32,1.23.14.05.29.05.43.05,1.96,0,3.93,0,5.89,0Zm-2.05.81c0,.78.8,1.91,2.11,1.87,1.05-.03,2.06-.98,1.98-1.87h-4.09Z"/><circle class="b" cx="15.83" cy="6.54" r="2.45"/></svg>