<?xml version="1.0" encoding="UTF-8"?><svg id="a" xmlns="http://www.w3.org/2000/svg" viewBox="0 0 24 24"><defs><style>.b{stroke:#fff;stroke-linecap:round;stroke-linejoin:round;}.b,.c{fill:none;stroke-width:1.25px;}.c{stroke:#fff;stroke-miterlimit:10;}</style></defs><path class="c" d="m21.27,11.22c-.18-1.58-1.62-2.83-3.27-2.86-.36,0-.46-.12-.48-.47-.02-.38-.03-.77-.11-1.15-.45-2.34-2.35-4.1-4.74-4.42-2.29-.31-4.62.98-5.64,3.12-.34.71-.51,1.46-.54,2.25-.01.29-.13.41-.42.44-.08,0-.17.02-.25.03-2.23.21-3.69,2.51-2.87,4.6.75,1.92,2.37,2.43,4.26,2.21,0-.51.01-1.02,0-1.53,0-.1.01.38.01.38,0,1.98.01,3.96,0,5.94-.01,1.15.55,1.98,1.37,1.98,2.3,0,4.6.02,6.9,0,.81,0,1.36-.83,1.35-1.98-.02-1.98,0-3.96,0-5.94v-.41c0-.65-.52-1.17-1.17-1.18l-7.24-.08c-.13,0-.06-.03.1-.03,2.34.02,4.68.02,7.01,0,.73,0,1.33.6,1.31,1.32-.02.51,0,1.02,0,1.61.68-.05,1.34,0,1.96-.15,1.66-.38,2.69-1.94,2.49-3.66Z"/><path class="c" d="m7.19,13.33s.04-1.21,1.21-1.2"/><path class="b" d="m10.86,14.65s.53-.48,1.63-.12c.43.14.74.52.77.97.04.55-.12,1.3-1.15,1.72,0,0-.32.15-.22.51v.86"/><circle class="b" cx="11.95" cy="19.48" r=".12"/></svg>