<?xml version="1.0" encoding="UTF-8"?><svg id="a" xmlns="http://www.w3.org/2000/svg" viewBox="0 0 24 24"><defs><style>.b{fill:none;stroke:#fff;stroke-linecap:round;stroke-linejoin:round;stroke-width:1.25px;}</style></defs><path class="b" d="m11.99,9.82c-.99,0-1.82-.84-1.82-1.83,0-1.01.83-1.83,1.84-1.82,1,0,1.82.82,1.82,1.82,0,1-.84,1.84-1.84,1.83Z"/><path class="b" d="m15.12,5.35c-.1-.11-.2-.21-.3-.32-.12-.14-.23-.16-.39-.04-.22.17-.46.16-.71.05-.28-.12-.56-.25-.85-.35-.28-.1-.45-.28-.48-.58-.02-.17-.1-.23-.25-.22-.11,0-.22-.02-.31,0-.08.03-.19.11-.2.18-.05.35-.26.53-.58.64-.24.08-.47.18-.69.29-.29.14-.56.17-.82-.04-.12-.09-.22-.09-.32.02-.05.06-.11.12-.17.17-.14.12-.18.22-.04.38.17.2.17.44.07.69-.13.3-.25.61-.38.92-.1.24-.26.41-.53.44-.18.02-.26.1-.24.28,0,.09,0,.18,0,.27,0,.15.04.22.2.24.31.04.5.22.6.53.08.25.18.5.3.74.15.3.17.57-.05.84-.09.11-.08.2.02.29.07.07.14.13.21.21.11.13.21.14.35.02.22-.18.47-.18.73-.06.28.13.58.25.87.36.25.1.43.26.45.52.02.22.12.28.31.26.08,0,.16,0,.24,0,.14,0,.22-.05.24-.21.03-.31.22-.49.5-.59.27-.1.54-.21.8-.33.27-.13.53-.13.77.06.13.11.23.08.33-.03.06-.07.12-.13.19-.19.12-.1.14-.2.03-.33-.2-.25-.19-.51-.05-.79.12-.25.23-.5.32-.76.1-.3.28-.49.59-.53.17-.02.22-.1.21-.25,0-.09,0-.18,0-.27.01-.16-.05-.24-.21-.26-.31-.03-.48-.22-.58-.51-.09-.27-.2-.53-.33-.78-.14-.28-.14-.54.06-.79.03-.04.06-.09.1-.17Z"/><polyline class="b" points="16.82 7.99 18.67 7.99 18.67 19.01 16.82 19.01 16.82 17.97 7.86 17.97 7.86 19.01 5.33 19.01 5.33 7.99 7.04 7.99"/><polyline class="b" points="7.86 19.01 7.86 20.1 16.82 20.1 16.82 19.01"/><line class="b" x1="8.96" y1="19.01" x2="10.3" y2="19.01"/><line class="b" x1="11.63" y1="19.01" x2="12.98" y2="19.01"/><line class="b" x1="14.31" y1="19.01" x2="15.65" y2="19.01"/></svg>