<?xml version="1.0" encoding="UTF-8"?><svg id="a" xmlns="http://www.w3.org/2000/svg" viewBox="0 0 24 24"><defs><style>.b{fill:none;stroke:#fff;stroke-linecap:round;stroke-linejoin:round;stroke-width:1.25px;}</style></defs><path class="b" d="m11.99,19.17c-1.02,0-1.88-.86-1.88-1.89,0-1.04.86-1.89,1.9-1.88,1.04,0,1.88.85,1.88,1.88,0,1.04-.86,1.9-1.9,1.89Z"/><path class="b" d="m15.22,14.55c-.1-.11-.21-.21-.3-.33-.12-.15-.24-.17-.4-.04-.22.18-.48.16-.73.05-.29-.13-.58-.25-.87-.36-.28-.11-.47-.29-.5-.59-.02-.17-.1-.23-.26-.23-.11,0-.23-.02-.32,0-.08.03-.2.11-.21.19-.05.37-.27.55-.6.66-.24.08-.48.18-.71.3-.29.15-.57.17-.84-.04-.12-.09-.22-.09-.33.03-.06.06-.11.12-.18.18-.14.12-.18.23-.04.4.17.21.18.46.07.71-.13.31-.26.63-.39.94-.1.25-.27.42-.55.45-.18.02-.27.1-.25.29,0,.09,0,.18,0,.28,0,.15.04.22.21.24.32.04.52.23.62.54.08.26.19.52.31.76.15.3.17.59-.05.86-.09.11-.08.21.02.3.07.07.15.14.21.21.11.13.22.14.36.03.23-.18.48-.19.75-.07.29.14.6.25.9.37.25.1.44.27.47.54.02.23.12.29.32.27.08,0,.17,0,.25,0,.15,0,.23-.05.24-.21.03-.32.22-.5.52-.61.28-.1.56-.22.83-.34.28-.13.55-.14.8.06.14.11.24.09.34-.03.06-.07.13-.13.2-.19.12-.11.14-.21.03-.34-.21-.26-.19-.53-.05-.82.12-.25.24-.51.33-.78.1-.31.29-.51.61-.55.18-.02.23-.11.22-.26,0-.09,0-.18,0-.28.01-.17-.06-.25-.22-.27-.32-.03-.5-.23-.6-.52-.1-.27-.21-.54-.34-.81-.14-.29-.14-.56.06-.82.03-.05.06-.1.1-.17Z"/><path class="b" d="m5.58,5.34c0,.93.04,1.83-.01,2.72-.03.57.22.9.67,1.14.16.09.32.17.49.24,1.15.47,2.37.66,3.6.76,1.92.16,3.82.08,5.7-.37.72-.17,1.42-.39,2.02-.84.25-.19.38-.42.37-.75-.02-.89,0-1.79,0-2.68,0-.07,0-.14-.01-.2-.3.16-.58.33-.87.46-1.51.64-3.12.85-4.74.88-1.12.02-2.26-.03-3.37-.15-1.34-.14-2.65-.42-3.84-1.23Zm10.14,8.94c.24-.04.37-.08.37-.08.68-.19,1.36-.39,1.94-.82.26-.2.42-.44.39-.79-.02-.2,0-.4,0-.6,0-.85,0-1.7,0-2.56-.31.17-.58.34-.87.46-1.26.55-2.61.74-3.96.85-1.24.1-2.49.09-3.73-.05-1.14-.12-2.26-.32-3.32-.77-.32-.14-.63-.32-.95-.5,0,1.06.01,2.12,0,3.17,0,.35.13.59.4.78.6.44,1.29.66,1.99.83.12.03.23.06.35.08m3.66-8.07c1.45-.02,2.87-.12,4.26-.49.66-.18,1.32-.38,1.86-.82.43-.35.45-.75,0-1.08-.34-.25-.72-.45-1.12-.6-1.11-.42-2.27-.59-3.45-.67-1.86-.13-3.7-.07-5.52.37-.74.18-1.47.39-2.08.87-.47.37-.48.79.01,1.12.36.25.76.45,1.17.6,1.58.56,3.22.67,4.86.7Zm-3.63,8.62c-.12-.02-.18-.04-.18-.04-.89-.21-1.77-.46-2.57-1.04,0,1.07,0,2.1,0,3.12,0,.12.08.26.17.35.5.53,1.18.73,1.86.92.06.01.11.02.17.03m8.44.02c.11-.03.17-.05.17-.05.63-.17,1.24-.37,1.73-.8.14-.12.28-.33.29-.5.03-1.02.01-2.04.01-3.06-.31.17-.59.35-.89.46-.56.2-1.14.37-1.71.54-.08.01-.17.03-.25.04"/></svg>