<?xml version="1.0" encoding="UTF-8"?><svg id="a" xmlns="http://www.w3.org/2000/svg" viewBox="0 0 24 24"><defs><style>.b{stroke-linecap:round;stroke-linejoin:round;}.b,.c{fill:none;stroke:#fff;stroke-width:1.25px;}.c{stroke-miterlimit:10;}</style></defs><path class="c" d="m15.33,16.75h1.84c.56-.02,1.1-.01,1.61-.13,1.66-.38,2.69-1.94,2.49-3.66-.18-1.58-1.62-2.83-3.27-2.86-.36,0-.46-.12-.48-.47-.02-.38-.03-.77-.11-1.15-.45-2.34-2.35-4.1-4.74-4.42-2.29-.31-4.62.98-5.64,3.12-.34.71-.51,1.46-.54,2.25-.01.29-.13.41-.42.44-.08,0-.17.02-.25.03-2.23.21-3.69,2.51-2.87,4.6.7,1.79,2.15,2.36,3.87,2.25h1.97"/><path class="b" d="m11.99,18.2c-.78,0-1.44-.66-1.44-1.45,0-.8.66-1.44,1.46-1.44.79,0,1.44.65,1.44,1.44,0,.79-.66,1.45-1.46,1.45Z"/><path class="b" d="m14.46,14.67c-.08-.08-.16-.16-.23-.25-.1-.11-.18-.13-.31-.03-.17.13-.37.13-.56.04-.22-.1-.44-.19-.67-.28-.22-.08-.36-.22-.38-.45-.01-.13-.08-.18-.2-.17-.08,0-.17-.02-.25,0-.06.02-.15.09-.16.14-.04.28-.21.42-.46.5-.19.06-.37.14-.55.23-.23.11-.44.13-.65-.03-.09-.07-.17-.07-.25.02-.04.05-.09.09-.14.14-.11.09-.14.18-.03.3.13.16.14.35.05.54-.1.24-.2.48-.3.72-.08.19-.21.32-.42.35-.14.01-.21.08-.19.22,0,.07,0,.14,0,.21,0,.12.03.17.16.19.25.03.4.17.47.41.06.2.15.39.24.58.12.23.13.45-.04.66-.07.09-.06.16.02.23.06.05.11.11.16.16.09.1.17.11.28.02.17-.14.37-.15.57-.05.22.1.46.19.69.28.19.08.34.21.36.41.02.17.09.22.25.21.06,0,.13,0,.19,0,.11,0,.18-.04.19-.16.02-.24.17-.38.4-.46.21-.08.43-.17.63-.26.22-.1.42-.11.61.05.1.09.18.07.26-.02.05-.05.1-.1.15-.15.09-.08.11-.16.02-.26-.16-.2-.15-.41-.04-.63.09-.19.18-.39.25-.6.08-.24.22-.39.47-.42.14-.02.17-.08.16-.2,0-.07,0-.14,0-.21.01-.13-.04-.19-.17-.2-.25-.03-.38-.17-.46-.4-.07-.21-.16-.42-.26-.62-.11-.22-.11-.43.04-.63.03-.03.05-.07.08-.13Z"/></svg>