<?xml version="1.0" encoding="UTF-8"?><svg id="a" xmlns="http://www.w3.org/2000/svg" viewBox="0 0 24 24"><defs><style>.b{fill:none;stroke:#fff;stroke-linecap:round;stroke-linejoin:round;stroke-width:1.25px;}</style></defs><path class="b" d="m11.97,16.25c-2.31-.01-4.23-1.94-4.23-4.25,0-2.34,1.93-4.25,4.29-4.24,2.33.01,4.24,1.92,4.23,4.24,0,2.34-1.95,4.27-4.29,4.26Z"/><path class="b" d="m19.25,5.87c-.23-.25-.47-.48-.69-.73-.28-.33-.54-.38-.91-.09-.51.4-1.07.37-1.65.12-.65-.28-1.3-.57-1.97-.82-.64-.24-1.05-.65-1.13-1.34-.04-.38-.23-.53-.59-.51-.24.01-.51-.05-.73.02-.19.06-.45.26-.47.42-.11.82-.61,1.23-1.35,1.48-.55.18-1.09.41-1.61.67-.66.33-1.29.38-1.9-.09-.27-.21-.5-.21-.73.06-.12.14-.26.28-.4.4-.32.27-.41.52-.1.89.39.47.4,1.03.16,1.59-.3.71-.59,1.42-.88,2.13-.23.56-.61.95-1.24,1.02-.42.04-.61.22-.57.66.02.2.01.41,0,.62-.02.34.1.5.47.55.72.09,1.16.52,1.39,1.22.19.59.43,1.16.71,1.71.35.69.39,1.33-.11,1.94-.21.26-.19.47.05.68.17.15.33.31.48.48.26.3.49.32.82.06.51-.41,1.08-.43,1.69-.15.66.31,1.34.57,2.02.83.57.22.99.61,1.05,1.21.05.51.28.64.73.61.19-.01.38,0,.56,0,.33,0,.52-.12.55-.48.07-.72.5-1.13,1.16-1.37.63-.23,1.26-.49,1.87-.78.64-.3,1.24-.31,1.79.14.31.25.53.2.77-.07.14-.15.29-.3.44-.44.27-.24.32-.47.07-.77-.47-.58-.44-1.19-.12-1.84.28-.57.54-1.16.74-1.76.23-.7.66-1.14,1.38-1.23.4-.05.51-.24.48-.59-.01-.21-.02-.42,0-.62.03-.37-.12-.56-.49-.6-.72-.08-1.12-.51-1.35-1.18-.22-.62-.47-1.23-.76-1.81-.32-.66-.32-1.26.13-1.85.08-.1.13-.22.23-.39Z"/></svg>